HIERARCHY
ROOT Hips
{
  OFFSET -102.467 93.6631 130.069
  CHANNELS 6 Xposition Yposition Zposition Zrotation Xrotation Yrotation
  JOINT LeftUpLeg
  {
    OFFSET 8.64259 1.95398 -2.38835
    CHANNELS 3 Zrotation Xrotation Yrotation
    JOINT LeftLeg
    {
      OFFSET 43.7702 0 0
      CHANNELS 3 Zrotation Xrotation Yrotation
      JOINT LeftFoot
      {
        OFFSET 40.6238 0 0
        CHANNELS 3 Zrotation Xrotation Yrotation
        JOINT LeftToeBase
        {
          OFFSET 12.7242 0 0
          CHANNELS 3 Zrotation Xrotation Yrotation
          End Site
          {
            OFFSET 0 0 0
          }
        }
      }
    }
  }
  JOINT RightUpLeg
  {
    OFFSET -8.2249 1.95398 -2.59336
    CHANNELS 3 Zrotation Xrotation Yrotation
    JOINT RightLeg
    {
      OFFSET 43.5653 0 0
      CHANNELS 3 Zrotation Xrotation Yrotation
      JOINT RightFoot
      {
        OFFSET 40.6238 0 0
        CHANNELS 3 Zrotation Xrotation Yrotation
        JOINT RightToeBase
        {
          OFFSET 12.7242 0 0
          CHANNELS 3 Zrotation Xrotation Yrotation
          End Site
          {
            OFFSET 0 0 0
          }
        }
      }
    }
  }
  JOINT Spine
  {
    OFFSET 0.165834 0.87714 6.61349
    CHANNELS 3 Zrotation Xrotation Yrotation
    JOINT Spine1
    {
      OFFSET 7.38963 1.71661e-005 0
      CHANNELS 3 Zrotation Xrotation Yrotation
      JOINT Spine2
      {
        OFFSET 11.9445 1.14441e-005 0
        CHANNELS 3 Zrotation Xrotation Yrotation
        JOINT Spine3
        {
          OFFSET 14.7254 4.19617e-005 0
          CHANNELS 3 Zrotation Xrotation Yrotation
          JOINT Spine4
          {
            OFFSET 10.9679 0 0
            CHANNELS 3 Zrotation Xrotation Yrotation
            JOINT RightShoulder
            {
              OFFSET 2.46616 -1.6653 3.69651
              CHANNELS 3 Zrotation Xrotation Yrotation
              JOINT RightArm
              {
                OFFSET 13.0012 0 0
                CHANNELS 3 Zrotation Xrotation Yrotation
                JOINT RightForeArm
                {
                  OFFSET 28.7848 1.52588e-005 0
                  CHANNELS 3 Zrotation Xrotation Yrotation
                  JOINT RightHand
                  {
                    OFFSET 26.5688 1.52588e-005 0
                    CHANNELS 3 Zrotation Xrotation Yrotation
                    End Site
                    {
                      OFFSET 0 0 0
                    }
                  }
                }
              }
            }
            JOINT LeftShoulder
            {
              OFFSET 2.38034 -1.29275 -3.7523
              CHANNELS 3 Zrotation Xrotation Yrotation
              JOINT LeftArm
              {
                OFFSET 16.3182 6.10351e-005 0
                CHANNELS 3 Zrotation Xrotation Yrotation
                JOINT LeftForeArm
                {
                  OFFSET 27.0901 0 0
                  CHANNELS 3 Zrotation Xrotation Yrotation
                  JOINT LeftHand
                  {
                    OFFSET 24.5451 1.52588e-005 0
                    CHANNELS 3 Zrotation Xrotation Yrotation
                    End Site
                    {
                      OFFSET 0 0 0
                    }
                  }
                }
              }
            }
            JOINT Neck
            {
              OFFSET 5.0226 -0.0266342 0
              CHANNELS 3 Zrotation Xrotation Yrotation
              JOINT Head
              {
                OFFSET 6.69363 2.86102e-005 0
                CHANNELS 3 Zrotation Xrotation Yrotation
                End Site
                {
                  OFFSET 0 0 0
                }
              }
            }
          }
        }
      }
    }
  }
}
MOTION
Frames:	18
Frame Time:	0.0416667
-0.606062 35.301 -37.0578 165.821 -65.5094 166.364 161.039 78.9451 121.654 -154.2 11.0831 1.78441 73.4875 8.16332 -0.330465 59.8564 1.1538 14.0006 -141.938 69.2324 21.386 -151.891 -26.03 -2.44189 76.2049 -5.26317 7.89075 57.7553 -3.97571 7.43341 0.305365 13.2938 -90.7218 0.286213 0.341136 -1.38835 -11.3855 0.279707 -1.40203 -33.916 0.742583 -1.23019 -13.9034 0.742592 -1.23018 97.9439 -31.3416 -90.673 -20.8944 -32.7005 -67.5753 -36.0568 3.40567 -73.1562 -40.223 -6.80556 13.5904 -85.4078 -28.405 81.5876 -11.5236 21.0382 -64.4943 25.0221 5.76783 -66.8376 1.6239 -0.00730428 -1.98519 27.9912 -1.71857 13.8187 -4.604 -6.85642 -14.2125 
-0.749506 35.3197 -37.006 165.76 -65.3638 166.186 161.64 78.7146 121.307 -154.212 11.1131 1.86068 73.7953 8.3749 -0.354835 58.3681 -1.86314 5.06978 -143.179 68.2834 22.7819 -151.812 -25.3461 -2.34149 78.439 -5.22148 10.0595 54.4661 -4.70599 4.12963 0.293801 13.3169 -90.7214 0.239764 0.318432 -1.38828 -11.4319 0.257036 -1.40095 -33.9625 0.720921 -1.22703 -13.9498 0.720925 -1.22702 97.9049 -31.2258 -90.7668 -20.4922 -32.7208 -67.3382 -36.0856 3.27486 -73.2504 -40.6467 -6.9176 13.68 -85.5646 -28.6311 81.3279 -11.337 20.9046 -64.6628 24.6358 5.52206 -66.7628 4.65423 0.0878959 -1.41307 28.5013 -1.79132 12.7086 -5.56238 -6.45892 -12.4713 
-0.741198 35.2662 -36.9935 165.637 -65.2697 165.789 162.187 78.3029 120.598 -154.332 12.3052 1.76332 74.2728 8.59529 0.0170053 58.2901 -1.30348 6.67063 -142.105 67.9417 21.6369 -151.954 -25.0262 -2.35349 78.4483 -4.87956 10.631 54.0374 -4.50386 4.37383 0.262125 13.324 -90.7045 0.225195 0.261601 -1.35805 -11.4464 0.201588 -1.36825 -33.977 0.657626 -1.21669 -13.9644 0.657633 -1.21667 97.9453 -31.0892 -90.7035 -20.5165 -32.7436 -67.4577 -36.6207 3.3592 -73.1616 -38.713 -6.66368 13.9655 -85.5245 -28.6339 81.4081 -12.4948 21.006 -64.1782 24.7933 5.65896 -66.6733 3.64628 0.036898 -2.21754 28.2721 -1.58309 13.3296 -5.68234 -6.45557 -13.1301 
-0.794918 35.2009 -37.0473 165.545 -65.036 165.587 160.437 77.8182 122.343 -154.463 15.671 1.60228 73.8642 8.97826 2.21429 58.5248 -0.811594 8.1877 -142.246 67.8331 21.7084 -152.04 -25.1762 -2.34877 78.5161 -4.99414 10.4592 53.9991 -4.57184 4.1858 0.249215 13.3498 -90.7045 0.173639 0.236181 -1.35892 -11.498 0.176152 -1.368 -34.0285 0.633642 -1.22515 -14.0158 0.633642 -1.22515 97.9693 -31.04 -90.6613 -20.6432 -32.6803 -67.5556 -35.8804 3.13556 -72.938 -43.6289 -7.23687 13.099 -85.5116 -28.5927 81.4242 -12.3804 20.9883 -64.2451 25.776 6.11224 -66.9382 -0.0462668 -0.0726396 -3.39795 27.9528 -1.56784 13.3773 -5.5988 -6.43102 -13.2268 
-0.821708 35.1784 -37.1139 165.472 -65.0283 165.49 159.674 77.9479 123.082 -154.404 15.5573 1.62664 73.7701 8.76528 1.81334 58.5072 -0.76586 8.31965 -141.627 67.8197 21.2229 -152.06 -24.9534 -2.327 78.4237 -4.83903 10.6614 53.6729 -4.38684 4.46473 0.252027 13.3482 -90.7032 0.176859 0.242243 -1.35598 -11.4948 0.182331 -1.36532 -34.0253 0.638539 -1.22053 -14.0127 0.638542 -1.22053 98.0271 -30.907 -90.5616 -20.6448 -32.7775 -67.551 -34.7363 3.72234 -72.7034 -44.3385 -6.40836 10.7311 -85.4734 -28.6234 81.5074 -12.1734 21.0498 -64.4761 25.9468 6.27688 -66.8155 -0.355349 -0.0786007 -3.69272 27.8036 -1.56403 13.5374 -5.64938 -6.46298 -13.4472 
-0.86413 35.1843 -37.1742 165.638 -64.8359 165.486 161.359 77.8952 121.384 -154.402 15.5195 1.64936 73.7627 8.906 2.08123 58.6279 -0.704411 8.51856 -141.998 67.7974 21.5249 -152.1 -25.3414 -2.31657 78.5222 -5.277 10.0274 54.0251 -4.73241 3.80676 0.242844 13.3604 -90.6833 0.152448 0.231426 -1.31779 -11.5192 0.173208 -1.3267 -34.0499 0.616742 -1.18734 -14.0373 0.61675 -1.18733 97.908 -30.8131 -90.8156 -20.2894 -32.8431 -67.2745 -34.9144 3.66501 -72.8759 -44.2034 -6.56932 11.1808 -85.5529 -28.6865 81.3641 -12.407 21.1424 -64.3243 25.4196 6.01272 -66.6424 1.0635 -0.0143591 -2.88989 27.29 -1.65104 13.6583 -5.44876 -6.55263 -13.6345 
-0.868947 35.1458 -37.2076 165.456 -64.8849 165.385 160.313 78.0259 122.374 -154.343 15.7802 1.63485 73.4741 8.81643 2.26642 59.0257 -0.769912 8.3783 -142.321 68.1021 21.7857 -152.135 -25.2778 -2.32921 78.484 -5.618 9.53919 54.3166 -4.56444 4.37255 0.239132 13.3576 -90.6929 0.158018 0.220448 -1.33691 -11.5136 0.161404 -1.34532 -34.0442 0.612033 -1.20887 -14.0316 0.612026 -1.20889 98.0099 -30.5932 -90.6381 -20.1317 -32.8649 -67.5832 -34.8378 3.78989 -72.906 -42.7487 -6.29323 11.0831 -85.5177 -28.7033 81.4378 -12.2439 21.1921 -64.2866 25.0286 5.57351 -66.6503 8.25892 0.288875 -0.137437 27.6581 -1.61161 13.5081 -5.67103 -6.48143 -13.1202 
-0.898893 35.1854 -37.2638 165.627 -64.9189 165.566 160.498 78.0391 122.266 -154.346 15.7599 1.64403 73.6092 8.94004 2.33973 58.4719 -0.762426 8.3251 -142.405 68.3371 21.9179 -152.106 -25.401 -2.33053 78.3366 -5.61816 9.36177 54.4949 -4.83523 3.81322 0.233854 13.3476 -90.6837 0.178032 0.213208 -1.31949 -11.4936 0.154938 -1.32759 -34.0243 0.599895 -1.19443 -14.0116 0.599882 -1.19445 97.9756 -30.7098 -90.6923 -20.2148 -32.8793 -67.6975 -35.2396 3.75187 -72.8934 -41.5886 -6.29434 11.5833 -85.5148 -28.9729 81.5061 -11.8312 21.1487 -64.2821 26.0815 6.06265 -66.7159 8.82764 0.349587 0.121867 27.4089 -1.56013 13.6023 -5.49468 -6.45659 -13.3718 
-0.87388 35.1762 -37.2735 165.393 -64.8927 165.394 160.815 78.0081 121.847 -154.327 15.672 1.64205 73.6943 9.16007 2.60022 58.9361 -0.794041 8.29595 -142.473 68.2872 21.8029 -152.055 -25.0702 -2.35071 78.4665 -5.43003 9.8209 53.7181 -4.43153 4.37868 0.222477 13.3555 -90.7037 0.161927 0.183233 -1.35964 -11.5097 0.123216 -1.36638 -34.04 0.583353 -1.24174 -14.0274 0.583358 -1.24175 98.0957 -30.4684 -90.4793 -20.2876 -32.8423 -68.0194 -34.6754 3.69529 -72.9942 -42.6452 -6.48476 11.6194 -85.4379 -28.9769 81.6592 -11.7988 21.3484 -64.4544 25.299 5.67612 -66.7324 9.68385 0.524383 1.4482 27.8879 -1.57752 13.4364 -5.90956 -6.42555 -12.8982 
-0.891618 35.1611 -37.2795 165.679 -64.7721 165.566 161.345 77.9317 121.297 -154.339 15.7476 1.63287 73.5872 9.06614 2.57172 58.7901 -0.742682 8.42723 -142.232 68.238 21.6948 -152.1 -25.3037 -2.33468 78.1304 -5.51189 9.37808 54.4211 -4.5785 4.39772 0.21476 13.3663 -90.6869 0.140297 0.174173 -1.3274 -11.5313 0.115589 -1.33378 -34.0618 0.565022 -1.21371 -14.0492 0.565026 -1.21372 97.9848 -30.5808 -90.6907 -20.2004 -32.8058 -67.7291 -35.3065 3.60521 -73.0162 -41.9423 -6.54812 12.0904 -85.4909 -28.9323 81.544 -12.1804 21.1271 -64.3954 26.1574 6.16388 -66.7995 8.72097 0.384677 0.531972 27.1858 -1.61891 13.4547 -5.22915 -6.46349 -13.1345 
-0.857333 35.1548 -37.2459 165.708 -64.9199 165.788 160.092 77.912 122.6 -154.412 15.5059 1.61749 73.813 9.10019 2.3415 58.6222 -0.794525 8.25067 -142.545 68.3768 21.99 -152.087 -25.3834 -2.34815 78.3999 -5.58495 9.48338 53.9961 -4.61032 4.09005 0.21905 13.3502 -90.6668 0.172656 0.18998 -1.28765 -11.4989 0.133132 -1.29477 -34.0298 0.56816 -1.17106 -14.0171 0.568165 -1.17105 97.8438 -31.186 -90.8951 -20.6752 -32.7363 -67.7882 -35.0992 3.71701 -72.9742 -41.8334 -6.47365 11.9457 -85.4074 -28.6324 81.6408 -11.9944 21.2406 -64.3231 26.1713 6.07452 -66.9049 9.47103 0.515022 1.45303 27.3969 -1.83035 12.3701 -5.36215 -6.27438 -12.1141 
-0.852583 35.1597 -37.228 166.016 -64.9537 166.167 159.257 77.7215 123.47 -154.437 15.3075 1.6172 74.1431 8.97563 1.6599 58.4735 -0.688275 8.54647 -142.866 68.4732 22.4403 -152.085 -25.5808 -2.34319 78.4399 -5.81266 9.14257 54.3853 -4.80075 3.84002 0.233246 13.3486 -90.6663 0.175759 0.218461 -1.28534 -11.4958 0.161684 -1.29371 -34.0268 0.594637 -1.1603 -14.0141 0.594635 -1.16029 97.832 -31.1999 -90.9173 -20.5894 -32.7196 -67.7422 -35.7617 3.46632 -73.0246 -41.4842 -6.77226 12.8884 -85.3903 -28.5208 81.6492 -12.278 21.0932 -64.3207 25.1508 5.76739 -66.4563 8.20586 0.29002 -0.374637 27.331 -1.85292 12.6005 -5.46549 -6.36124 -12.4542 
-0.800479 35.202 -37.1983 166.26 -64.9049 166.29 160.71 77.6551 122.127 -154.442 15.2204 1.62658 74.1222 9.03306 1.825 58.3441 -0.761915 8.30865 -142.197 68.2319 21.8245 -152.028 -25.1971 -2.34709 78.1992 -5.30275 9.76358 54.1144 -4.5685 4.25735 0.238714 13.3755 -90.6692 0.122272 0.228589 -1.29025 -11.5493 0.171585 -1.29906 -34.0803 0.605767 -1.16193 -14.0676 0.605775 -1.16192 98.0194 -30.7627 -90.5962 -20.1709 -32.6445 -67.8769 -36.4286 3.10305 -73.203 -41.6015 -7.25724 14.1011 -85.3436 -28.4351 81.7226 -12.8222 20.9449 -64.3235 25.0548 5.57367 -66.7402 7.53216 0.240545 -0.550469 27.5569 -1.76344 12.9128 -5.46328 -6.41638 -12.7068 
-0.776148 35.1852 -37.1361 165.947 -64.8812 166.084 159.809 77.6261 122.901 -154.462 14.9532 1.61923 74.0998 8.88732 1.45078 58.5074 -0.815185 8.17431 -142.715 68.1139 22.1372 -152.043 -25.6585 -2.3326 78.2117 -5.53242 9.34931 54.5224 -4.62476 4.3418 0.230003 13.3827 -90.6971 0.107392 0.201006 -1.34568 -11.5643 0.141593 -1.35323 -34.0947 0.596119 -1.2231 -14.0821 0.59612 -1.2231 98.1188 -30.5713 -90.4188 -20.2954 -32.6647 -68.1895 -35.5164 3.17642 -73.1379 -42.5981 -7.21284 13.4978 -85.335 -28.5472 81.7656 -12.5222 21.0526 -64.5231 24.5076 5.42064 -66.587 7.24679 0.23969 -0.44911 27.5798 -1.70388 13.2032 -5.7472 -6.43853 -12.9898 
-0.773794 35.1872 -37.0566 166.33 -64.8537 166.481 160.578 77.4119 122.342 -154.591 15.4323 1.59352 74.3289 9.2374 2.0678 58.4019 -0.595134 8.81145 -142.126 67.6529 21.758 -152.016 -25.3028 -2.32261 78.5583 -4.79583 10.7536 53.0953 -4.39632 4.12284 0.24189 13.3876 -90.6856 0.0977275 0.228957 -1.3221 -11.5739 0.17055 -1.3309 -34.1046 0.615678 -1.19219 -14.092 0.615686 -1.19219 97.9635 -30.7121 -90.7165 -20.2635 -32.6634 -67.8028 -35.3054 3.25068 -73.1716 -43.3285 -7.21572 13.1713 -85.4059 -28.8037 81.6825 -11.7075 20.8348 -64.5562 24.4083 5.33656 -66.7347 6.64092 0.206145 -0.606057 27.2897 -1.76417 13.3464 -5.68708 -6.51835 -13.4016 
-0.765982 35.2514 -37.029 166.264 -65.0067 166.334 160.551 77.5131 122.331 -154.471 15.5789 1.58923 74.0344 9.06828 2.04793 58.4816 -0.552231 8.95182 -142.358 67.9655 21.9487 -151.979 -25.7561 -2.32471 77.996 -5.32719 9.44036 54.8866 -4.71328 4.32031 0.22854 13.3803 -90.6656 0.112463 0.209679 -1.2841 -11.5591 0.152969 -1.2921 -34.0901 0.585887 -1.16175 -14.0774 0.585883 -1.16176 97.9067 -30.8918 -90.8078 -20.3626 -32.6492 -67.7776 -35.2901 3.19272 -73.1148 -44.0296 -7.27653 12.9982 -85.3462 -28.4745 81.726 -12.2961 20.9098 -64.3575 24.8319 5.50365 -66.7785 7.01432 0.180522 -1.05835 27.5034 -1.93749 12.7572 -5.87853 -6.47498 -12.5563 
-0.822082 35.2959 -37.0068 166.617 -65.1964 166.675 160.384 77.4708 122.63 -154.474 15.7089 1.58252 74.1616 9.209 2.22512 58.1426 -0.585525 8.81033 -142.664 68.4324 22.4158 -151.977 -26.0312 -2.33389 77.8183 -5.79808 8.56219 55.4969 -5.05426 3.8389 0.243703 13.3721 -90.6811 0.128927 0.234088 -1.31328 -11.5427 0.176071 -1.32231 -34.0735 0.617939 -1.18224 -14.0608 0.617935 -1.18225 97.9231 -30.4005 -90.8408 -19.8372 -32.7737 -67.5218 -34.9143 3.59602 -72.9914 -42.744 -6.49182 11.5951 -85.5087 -28.6178 81.4358 -12.2711 21.044 -64.0852 23.6336 4.86181 -66.7775 7.84561 0.242744 -0.64364 27.0181 -1.62194 13.4442 -5.70965 -6.39153 -12.9807 
-0.791869 35.3573 -37.0184 166.901 -65.246 166.971 161.892 77.338 121.367 -154.389 15.5195 1.61205 74.4339 9.49245 2.36424 58.2786 -0.506213 9.06467 -142.368 68.3674 22.2206 -151.89 -25.5012 -2.34095 77.9787 -5.4708 9.29654 54.6071 -4.6922 4.22359 0.24015 13.3923 -90.6475 0.0882935 0.239652 -1.24741 -11.5832 0.184523 -1.25675 -34.1145 0.603442 -1.11775 -14.1019 0.603447 -1.11775 97.9494 -30.7713 -90.7369 -20.4233 -32.6839 -67.8497 -35.0887 3.9005 -73.1545 -40.2263 -6.22179 12 -85.3307 -28.7245 81.8141 -11.9048 21.0626 -64.2519 24.3544 5.07275 -66.9869 7.49692 0.188922 -1.13019 27.5052 -1.67045 12.809 -6.40581 -6.19225 -12.1524 
